<svg xmlns="http://www.w3.org/2000/svg" width="27.168" height="13.378" viewBox="0 0 27.168 13.378"><path d="M17.62,7.967c-.045-.56-.134-1.206,0-1.249a14.186,14.186,0,0,1,2.669-.646C13.526,4.995,6.763,3.962.044,2.929-.09,2.929.133.646.044.646c7.386,1.12,14.817,2.282,22.2,3.444-.667-.6-1.379-1.162-2.047-1.765-.133-.13,0-.991,0-1.163S20.334.13,20.2,0l4,3.488c.356.3.712.645,1.067.947.223.215.579.388.668.733a8.6,8.6,0,0,1,0,1.851V7.45c0-.043-.044-.043-.044-.086-.089.3-.312.345-.8.43a25.129,25.129,0,0,1-2.536.3,19.2,19.2,0,0,0-4.451.733.043.043,0,0,1-.044.042c-.133.043-.311.086-.445.13Z" transform="matrix(0.985, -0.174, 0.174, 0.985, 0, 4.515)" fill="#6eb0e1"/></svg>